solid tetrahedron 
facet normal 2.0 2.0 0.0 
outer loop 
vertex 0.0 1.0 0.0 
vertex 1.0 0.0 1.0 
vertex 1.0 0.0 -1.0 
endloop 
endfacet 
facet normal -0.0 6.0 0.0 
outer loop 
vertex -2.0 0.0 0.0 
vertex 1.0 0.0 1.0 
vertex 1.0 0.0 -1.0 
endloop 
endfacet 
facet normal 1.0 -2.0 -3.0 
outer loop 
vertex 0.0 1.0 0.0 
vertex 1.0 0.0 1.0 
vertex -2.0 0.0 0.0 
endloop 
endfacet 
facet normal -1.0 2.0 -3.0 
outer loop 
vertex 0.0 1.0 0.0 
vertex 1.0 0.0 -1.0 
vertex -2.0 0.0 0.0 
endloop 
endfacet 
endsolid tetrahedron